<svg width="515" height="515" xmlns="http://www.w3.org/2000/svg">

 <g>
  <title>Layer 1</title>
  <path id="svg_1" fill="#D0CDE1" d="m258.296,466.924c-2.149,-0.017 -4.324,-0.032 -6.459,-0.098l0.066,-2.145c2.114,0.065 4.275,0.094 6.394,0.096c2.128,0 4.297,-0.035 6.449,-0.104l0.07,2.145c-2.176,0.07 -4.368,0.106 -6.52,0.106zm-19.409,-0.907c-4.289,-0.405 -8.62,-0.953 -12.873,-1.629l0.34,-2.119c4.208,0.668 8.493,1.211 12.736,1.612l-0.203,2.136zm38.877,-0.023l-0.205,-2.136c4.242,-0.405 8.526,-0.953 12.734,-1.628l0.343,2.119c-4.254,0.683 -8.584,1.236 -12.872,1.645l0,0zm-64.492,-4.056c-4.199,-0.948 -8.424,-2.047 -12.557,-3.264l0.61,-2.059c4.089,1.205 8.269,2.291 12.424,3.229l-0.477,2.094zm90.103,-0.053l-0.479,-2.092c4.164,-0.947 8.343,-2.038 12.419,-3.245l0.614,2.059c-4.121,1.219 -8.345,2.322 -12.555,3.278l0.001,0zm-114.982,-7.274c-4.052,-1.483 -8.106,-3.116 -12.049,-4.855l0.872,-1.963c3.901,1.72 7.911,3.336 11.92,4.803l-0.743,2.015zm139.851,-0.084l-0.745,-2.014c3.984,-1.463 7.981,-3.078 11.879,-4.801l0.874,1.962c-3.941,1.742 -7.981,3.375 -12.008,4.853l0,0zm-163.607,-10.39c-3.813,-1.983 -7.621,-4.122 -11.317,-6.354l1.118,-1.837c3.657,2.211 7.423,4.325 11.196,6.288l-0.997,1.903zm187.288,-0.078l-0.997,-1.903c3.764,-1.961 7.522,-4.076 11.169,-6.284l1.12,1.834c-3.687,2.233 -7.486,4.369 -11.292,6.353l0,0zm-209.487,-13.339c-3.531,-2.456 -7.032,-5.061 -10.404,-7.741l1.343,-1.679c3.337,2.652 6.8,5.229 10.294,7.659l-1.233,1.761zm231.643,-0.077l-1.235,-1.759c3.493,-2.433 6.952,-5.009 10.28,-7.658l1.344,1.677c-3.364,2.677 -6.859,5.281 -10.389,7.74l0,0zm-251.933,-16.05c-3.193,-2.888 -6.332,-5.915 -9.328,-8.993l1.546,-1.495c2.965,3.046 6.071,6.04 9.23,8.898l-1.448,1.59zm272.199,-0.075l-1.45,-1.589c3.152,-2.852 6.255,-5.848 9.225,-8.902l1.546,1.493c-3,3.087 -6.137,6.114 -9.321,8.998l0,0zm-290.26,-18.482c-2.796,-3.267 -5.5212,-6.664 -8.1021,-10.098l1.7247,-1.287c2.5534,3.398 5.2504,6.76 8.0164,9.99l-1.639,1.395zm308.312,-0.09l-1.639,-1.392c2.765,-3.233 5.462,-6.599 8.015,-10.002l1.726,1.285c-2.581,3.439 -5.306,6.841 -8.102,10.109l0,0zm-323.8516,-20.6c-2.3568,-3.596 -4.6247,-7.31 -6.7412,-11.039l1.8756,-1.056c2.0933,3.688 4.3375,7.364 6.6696,10.921l-1.804,1.174zm339.3936,-0.116l-1.805,-1.172c2.333,-3.565 4.576,-7.246 6.671,-10.943l1.876,1.054c-2.116,3.738 -4.385,7.459 -6.742,11.061l0,0zm-352.1506,-22.367c-1.8746,-3.864 -3.6454,-7.835 -5.2633,-11.803l1.9955,-0.808c1.601,3.925 3.353,7.854 5.2075,11.676l-1.9397,0.935zm364.9106,-0.168l-1.939,-0.933c1.853,-3.828 3.606,-7.767 5.209,-11.711l1.996,0.805c-1.62,3.987 -3.391,7.97 -5.266,11.839l0,0zm-374.6708,-23.767c-1.3627,-4.077 -2.6077,-8.248 -3.7006,-12.397l2.0838,-0.545c1.0809,4.104 2.3127,8.23 3.6607,12.263l-2.0439,0.679zm384.4258,-0.227l-2.045,-0.675c1.34,-4.029 2.568,-8.157 3.646,-12.269l2.085,0.543c-1.091,4.157 -2.331,8.329 -3.686,12.401l0,0zm-391.0165,-24.776c-0.8232,-4.212 -1.5195,-8.507 -2.0702,-12.766l2.1364,-0.275c0.5449,4.214 1.2339,8.463 2.0481,12.63l-2.1143,0.411zm397.5775,-0.236l-2.115,-0.407c0.808,-4.166 1.493,-8.416 2.033,-12.633l2.137,0.272c-0.546,4.262 -1.238,8.558 -2.055,12.768l0,0zm-400.8932,-25.4c-0.2761,-4.279 -0.4186,-8.628 -0.4234,-12.927l2.1544,-0.002c0.0047,4.254 0.1456,8.557 0.4191,12.79l-2.1501,0.139zm404.1792,-0.24l-2.15,-0.136c0.268,-4.23 0.404,-8.533 0.404,-12.788l-0.002,-0.471l2.155,0l0.001,0.464c0,4.307 -0.138,8.655 -0.408,12.931zm-402.059,-25.478l-2.1501,-0.132c0.2671,-4.287 0.6758,-8.618 1.2149,-12.874l2.1375,0.268c-0.5339,4.212 -0.9383,8.497 -1.2023,12.738zm399.879,-0.704c-0.28,-4.243 -0.699,-8.528 -1.247,-12.733l2.135,-0.277c0.554,4.251 0.979,8.58 1.262,12.869l-2.15,0.141zm-396.6591,-24.667l-2.1154,-0.406c0.8126,-4.213 1.7752,-8.457 2.8596,-12.613l2.0849,0.539c-1.073,4.113 -2.0249,8.311 -2.8291,12.48zm393.3471,-0.693c-0.821,-4.171 -1.789,-8.366 -2.874,-12.469l2.083,-0.547c1.098,4.147 2.075,8.387 2.905,12.603l-2.114,0.413zm-386.8858,-24.058l-2.0459,-0.673c1.3522,-4.08 2.8575,-8.171 4.4748,-12.163l1.9976,0.804c-1.6,3.949 -3.089,7.996 -4.4265,12.032zm380.3388,-0.67c-1.353,-4.029 -2.854,-8.065 -4.463,-11.997l1.995,-0.81c1.626,3.974 3.144,8.054 4.51,12.126l-2.042,0.681zm-370.7159,-23.081l-1.9418,-0.931c1.8687,-3.871 3.8894,-7.734 6.0053,-11.48l1.8777,1.053c-2.0938,3.707 -4.0925,7.528 -5.9412,11.358zm361.0329,-0.585c-1.856,-3.812 -3.862,-7.619 -5.966,-11.316l1.875,-1.059c2.126,3.736 4.154,7.585 6.028,11.439l-1.937,0.936zm-348.4331,-21.725l-1.8061,-1.171c2.3494,-3.598 4.8482,-7.17 7.4265,-10.615l1.7272,1.283c-2.5509,3.408 -5.0234,6.942 -7.3476,10.503zm335.7851,-0.505c-2.331,-3.548 -4.811,-7.071 -7.371,-10.47l1.723,-1.288c2.588,3.436 5.094,6.996 7.451,10.582l-1.803,1.176zm-320.434,-20.01l-1.641,-1.39c2.791,-3.271 5.724,-6.495 8.719,-9.583l1.549,1.492c-2.963,3.055 -5.865,6.246 -8.627,9.481zm305.035,-0.442c-2.77,-3.227 -5.682,-6.408 -8.652,-9.454l1.544,-1.496c3.003,3.078 5.945,6.293 8.744,9.555l-1.636,1.395zm-287.195,-17.953l-1.45,-1.587c3.188,-2.893 6.507,-5.719 9.866,-8.397l1.347,1.676c-3.324,2.65 -6.608,5.446 -9.763,8.308l0,0zm269.302,-0.389c-3.159,-2.85 -6.453,-5.637 -9.792,-8.284l1.343,-1.68c3.373,2.676 6.702,5.492 9.894,8.373l-1.445,1.591zm-249.268,-15.589l-1.236,-1.7583c3.525,-2.4618 7.177,-4.8419 10.855,-7.0746l1.121,1.8334c-3.639,2.2091 -7.252,4.564 -10.74,6.9995zm229.174,-0.342c-3.507,-2.4326 -7.132,-4.7796 -10.775,-6.9762l1.115,-1.8365c3.682,2.2196 7.347,4.5918 10.891,7.0504l-1.231,1.7623zm-207.271,-12.9554l-1,-1.9015c3.808,-1.9906 7.734,-3.8848 11.666,-5.6295l0.877,1.9612c-3.891,1.7259 -7.775,3.6002 -11.543,5.5698zm185.292,-0.2945c-3.783,-1.9623 -7.681,-3.8277 -11.587,-5.5447l0.87,-1.9644c3.947,1.7354 7.888,3.6212 11.712,5.6044l-0.995,1.9047zm-161.876,-10.0909l-0.748,-2.0137c4.039,-1.489 8.181,-2.8664 12.311,-4.0934l0.615,2.0577c-4.085,1.2133 -8.182,2.5761 -12.178,4.0494l0,0zm138.363,-0.2437c-4.005,-1.4597 -8.107,-2.8077 -12.194,-4.0059l0.608,-2.0598c4.131,1.2112 8.278,2.574 12.326,4.0499l-0.74,2.0158zm-113.769,-7.0631l-0.481,-2.0922c4.191,-0.9571 8.476,-1.791 12.736,-2.4802l0.345,2.1196c-4.215,0.6813 -8.454,1.5063 -12.6,2.4528zm89.148,-0.1561c-4.154,-0.933 -8.396,-1.7432 -12.609,-2.4089l0.337,-2.1206c4.259,0.673 8.547,1.4922 12.745,2.4351l-0.473,2.0944zm-63.816,-3.9399l-0.208,-2.1363c4.277,-0.4135 8.634,-0.696 12.948,-0.8391l0.072,2.1457c-4.27,0.1416 -8.58,0.4209 -12.812,0.8297l0,0zm38.469,-0.0665c-4.238,-0.3947 -8.55,-0.6588 -12.814,-0.7851l0.064,-2.1457c4.309,0.1278 8.667,0.3946 12.95,0.7935l-0.2,2.1373z"/>
  <path id="svg_2" fill="#7f7f7f" d="m250.666,136.782c27.96,0 50.626,-21.442 50.626,-47.8911c0,-26.4494 -22.666,-47.8909 -50.626,-47.8909c-27.961,0 -50.627,21.4415 -50.627,47.8909c0,26.4491 22.666,47.8911 50.627,47.8911z"/>
  <path id="svg_3" fill="#7f7f7f" d="m446.708,267.208c27.96,0 50.626,-21.441 50.626,-47.891c0,-26.449 -22.666,-47.891 -50.626,-47.891c-27.96,0 -50.626,21.442 -50.626,47.891c0,26.45 22.666,47.891 50.626,47.891z"/>
  <path id="svg_4" fill="#7f7f7f" d="m385.31,466.924c27.96,0 50.626,-21.442 50.626,-47.891c0,-26.45 -22.666,-47.891 -50.626,-47.891c-27.96,0 -50.626,21.441 -50.626,47.891c0,26.449 22.666,47.891 50.626,47.891z"/>
  <path id="svg_5" fill="#7f7f7f" d="m141.873,475.075c27.96,0 50.626,-21.441 50.626,-47.891c0,-26.449 -22.666,-47.891 -50.626,-47.891c-27.96,0 -50.6264,21.442 -50.6264,47.891c0,26.45 22.6664,47.891 50.6264,47.891z"/>
  <path id="svg_6" fill="#7f7f7f" d="m68.6263,267.208c27.9601,0 50.6267,-21.441 50.6267,-47.891c0,-26.449 -22.6666,-47.891 -50.6267,-47.891c-27.9601,0 -50.6263,21.442 -50.6263,47.891c0,26.45 22.6662,47.891 50.6263,47.891z"/>
  <path id="svg_7" fill="white" d="m272.361,85.0728l-17.659,0c-1.606,0 -3.146,-0.6034 -4.281,-1.6775c-1.136,-1.0741 -1.774,-2.5308 -1.774,-4.0498l0,-16.7046c0,-0.0627 -0.013,-0.1247 -0.038,-0.1826c-0.025,-0.058 -0.062,-0.1106 -0.109,-0.1549c-0.047,-0.0443 -0.103,-0.0795 -0.164,-0.1034c-0.061,-0.024 -0.127,-0.0364 -0.193,-0.0364l-11.604,0c-2.141,0 -4.195,0.8046 -5.709,2.2367c-1.513,1.4321 -2.364,3.3744 -2.364,5.3997l0,38.182c0,2.025 0.851,3.968 2.364,5.4c1.514,1.432 3.568,2.236 5.709,2.236l28.254,0c2.141,0 4.194,-0.804 5.708,-2.236c1.514,-1.432 2.364,-3.375 2.364,-5.4l0,-22.432c0,-0.0626 -0.013,-0.1247 -0.038,-0.1826c-0.026,-0.0579 -0.063,-0.1105 -0.11,-0.1548c-0.047,-0.0444 -0.102,-0.0795 -0.163,-0.1035c-0.062,-0.024 -0.127,-0.0363 -0.193,-0.0363l0,0zm-11.605,19.0912l-20.181,0c-0.535,0 -1.049,-0.201 -1.427,-0.559c-0.379,-0.358 -0.591,-0.844 -0.591,-1.35c0,-0.507 0.212,-0.992 0.591,-1.35c0.378,-0.358 0.892,-0.559 1.427,-0.559l20.181,0c0.536,0 1.049,0.201 1.427,0.559c0.379,0.358 0.591,0.843 0.591,1.35c0,0.506 -0.212,0.992 -0.591,1.35c-0.378,0.358 -0.891,0.559 -1.427,0.559zm0,-9.5458l-20.181,0c-0.535,0 -1.049,-0.2011 -1.427,-0.5591c-0.379,-0.358 -0.591,-0.8436 -0.591,-1.3499c0,-0.5064 0.212,-0.992 0.591,-1.35c0.378,-0.358 0.892,-0.5591 1.427,-0.5591l20.181,0c0.536,0 1.049,0.2011 1.427,0.5591c0.379,0.358 0.591,0.8436 0.591,1.35c0,0.5063 -0.212,0.9919 -0.591,1.3499c-0.378,0.358 -0.891,0.5591 -1.427,0.5591z"/>
  <path id="svg_8" fill="white" d="m271.253,80.8477l-18.139,-17.1592c-0.035,-0.0332 -0.08,-0.0558 -0.129,-0.0649c-0.049,-0.0091 -0.099,-0.0044 -0.145,0.0136c-0.046,0.018 -0.086,0.0484 -0.113,0.0875c-0.028,0.039 -0.043,0.085 -0.043,0.132l0,15.4887c0,0.5064 0.212,0.9919 0.591,1.35c0.378,0.358 0.892,0.5591 1.427,0.5591l16.373,0c0.05,-0.0002 0.099,-0.0143 0.14,-0.0405c0.041,-0.0262 0.073,-0.0634 0.092,-0.1069c0.019,-0.0435 0.024,-0.0913 0.015,-0.1375c-0.01,-0.0461 -0.034,-0.0886 -0.069,-0.1219l0,0z"/>
  <path id="svg_9" fill="white" d="m392.632,409.599c-0.62,0 -1.222,0.204 -1.701,0.577c-0.48,0.372 -0.808,0.891 -0.929,1.467c-0.121,0.576 -0.027,1.173 0.266,1.691c0.293,0.518 0.767,0.923 1.34,1.148c0.574,0.224 1.212,0.254 1.806,0.083c0.594,-0.171 1.107,-0.531 1.451,-1.019c0.345,-0.489 0.5,-1.075 0.439,-1.659c-0.061,-0.585 -0.335,-1.131 -0.774,-1.546c-0.249,-0.235 -0.545,-0.422 -0.87,-0.55c-0.326,-0.127 -0.675,-0.193 -1.028,-0.192z"/>
  <path id="svg_10" fill="white" d="m407.569,399.449l0,-0.008c-0.085,-0.353 -0.272,-0.676 -0.541,-0.933c-0.269,-0.257 -0.608,-0.438 -0.98,-0.522c-2.995,-0.691 -7.708,0.045 -12.93,2.023c-5.022,1.847 -9.617,4.599 -13.529,8.104c-1.068,1.006 -2.061,2.08 -2.97,3.217c-2.009,-0.131 -4.023,0.175 -5.888,0.895c-5.804,2.416 -7.462,8.6 -7.903,11.139c-0.064,0.361 -0.039,0.731 0.073,1.081c0.112,0.35 0.308,0.671 0.572,0.938c0.265,0.267 0.591,0.472 0.953,0.6c0.362,0.128 0.751,0.176 1.135,0.139l0.013,0l6.466,-0.668c0.008,0.078 0.017,0.15 0.024,0.215c0.083,0.745 0.435,1.441 0.995,1.97l3.156,2.987c0.559,0.532 1.294,0.864 2.082,0.943l0.216,0.022l-0.704,6.108l0,0.013c-0.034,0.31 -0.003,0.624 0.092,0.923c0.094,0.299 0.249,0.578 0.458,0.82c0.208,0.243 0.464,0.444 0.754,0.592c0.291,0.149 0.609,0.242 0.937,0.274c0.078,0.007 0.155,0.012 0.233,0.012c0.14,0 0.279,-0.01 0.417,-0.032c2.699,-0.411 9.233,-1.96 11.781,-7.48c0.755,-1.758 1.079,-3.654 0.95,-5.548c1.207,-0.858 2.347,-1.797 3.412,-2.81c3.703,-3.665 6.616,-7.978 8.576,-12.696c2.08,-4.884 2.863,-9.375 2.15,-12.318zm-10.762,16.63c-0.826,0.782 -1.878,1.315 -3.024,1.531c-1.146,0.216 -2.334,0.106 -3.413,-0.316c-1.08,-0.423 -2.003,-1.139 -2.653,-2.057c-0.65,-0.919 -0.997,-1.999 -0.997,-3.105c-0.001,-1.105 0.345,-2.186 0.994,-3.105c0.648,-0.919 1.571,-1.636 2.65,-2.06c1.079,-0.423 2.267,-0.534 3.413,-0.319c1.146,0.215 2.199,0.746 3.026,1.528l0.004,0.004c1.108,1.032 1.736,2.437 1.748,3.907c0.012,1.471 -0.594,2.885 -1.685,3.933l-0.063,0.059z"/>
  <path id="svg_11" fill="white" d="m375.853,431.436c-0.389,-0.045 -0.782,0.045 -1.106,0.254c-0.642,0.416 -1.287,0.827 -1.939,1.227c-0.283,0.172 -0.618,0.249 -0.953,0.219c-0.335,-0.03 -0.649,-0.165 -0.893,-0.385c-0.243,-0.219 -0.402,-0.51 -0.45,-0.824c-0.048,-0.315 0.017,-0.636 0.185,-0.912l1.222,-1.997c0.174,-0.241 0.271,-0.526 0.28,-0.818c0.008,-0.293 -0.073,-0.581 -0.234,-0.831c-0.161,-0.25 -0.395,-0.451 -0.673,-0.579c-0.279,-0.127 -0.59,-0.176 -0.897,-0.14c-1.356,0.162 -2.616,0.746 -3.582,1.66c-0.368,0.349 -1.487,1.408 -2.089,5.445c-0.171,1.159 -0.279,2.326 -0.324,3.496c-0.005,0.2 0.031,0.399 0.107,0.585c0.076,0.187 0.19,0.357 0.335,0.502c0.146,0.145 0.32,0.261 0.513,0.343c0.193,0.081 0.401,0.125 0.612,0.13c0.014,0.001 0.028,0.001 0.042,0.001l0.04,0c1.238,-0.042 2.472,-0.143 3.699,-0.304c4.269,-0.571 5.389,-1.63 5.757,-1.978c0.971,-0.915 1.587,-2.112 1.748,-3.399c0.052,-0.4 -0.066,-0.804 -0.329,-1.121c-0.263,-0.318 -0.648,-0.524 -1.071,-0.574l0,0z"/>
  <path id="svg_12" fill="white" d="m124.45,453.208l-3.668,0c-0.73,0 -1.43,-0.274 -1.946,-0.762c-0.516,-0.488 -0.805,-1.15 -0.805,-1.84l0,-15.614c0,-0.691 0.289,-1.353 0.805,-1.841c0.516,-0.488 1.216,-0.762 1.946,-0.762l3.668,0c0.729,0 1.429,0.274 1.945,0.762c0.516,0.488 0.806,1.15 0.806,1.841l0,15.614c0,0.69 -0.29,1.352 -0.806,1.84c-0.516,0.488 -1.216,0.762 -1.945,0.762l0,0z"/>
  <path id="svg_13" fill="white" d="m150.126,453.208l-3.668,0c-0.73,0 -1.429,-0.274 -1.945,-0.762c-0.516,-0.488 -0.806,-1.15 -0.806,-1.84l0,-26.024c0,-0.69 0.29,-1.352 0.806,-1.84c0.516,-0.488 1.215,-0.762 1.945,-0.762l3.668,0c0.73,0 1.429,0.274 1.945,0.762c0.516,0.488 0.806,1.15 0.806,1.84l0,26.024c0,0.69 -0.29,1.352 -0.806,1.84c-0.516,0.488 -1.215,0.762 -1.945,0.762l0,0z"/>
  <path id="svg_14" fill="white" d="m162.964,453.208l-3.668,0c-0.73,0 -1.429,-0.274 -1.945,-0.762c-0.516,-0.488 -0.806,-1.15 -0.806,-1.84l0,-38.169c0,-0.69 0.29,-1.352 0.806,-1.84c0.516,-0.488 1.215,-0.762 1.945,-0.762l3.668,0c0.73,0 1.43,0.274 1.945,0.762c0.516,0.488 0.806,1.15 0.806,1.84l0,38.169c0,0.69 -0.29,1.352 -0.806,1.84c-0.515,0.488 -1.215,0.762 -1.945,0.762l0,0z"/>
  <path id="svg_15" fill="white" d="m137.288,453.208l-3.668,0c-0.73,0 -1.43,-0.274 -1.945,-0.762c-0.516,-0.488 -0.806,-1.15 -0.806,-1.84l0,-46.843c0,-0.69 0.29,-1.352 0.806,-1.84c0.515,-0.488 1.215,-0.763 1.945,-0.763l3.668,0c0.729,0 1.429,0.275 1.945,0.763c0.516,0.488 0.806,1.15 0.806,1.84l0,46.843c0,0.342 -0.071,0.68 -0.21,0.996c-0.138,0.316 -0.34,0.603 -0.596,0.844c-0.255,0.242 -0.559,0.434 -0.892,0.564c-0.334,0.131 -0.692,0.198 -1.053,0.198l0,0z"/>
  <path id="svg_16" fill="white" d="m449.133,218.063l-2.621,-2.48c-0.6,-0.568 -1.413,-0.888 -2.262,-0.89c-0.849,-0.002 -1.665,0.314 -2.268,0.879l-18.22,15.906c-0.669,0.56 -1.078,1.346 -1.139,2.189c-0.02,0.419 0.053,0.837 0.212,1.228c0.159,0.391 0.401,0.747 0.712,1.045l3.915,3.744l0.007,0.007c0.604,0.57 1.423,0.891 2.277,0.894l0.118,0c0.443,-0.023 0.876,-0.129 1.275,-0.311c0.399,-0.182 0.756,-0.437 1.051,-0.749l16.932,-17.157c0.605,-0.567 0.947,-1.339 0.951,-2.145c0.003,-0.805 -0.332,-1.58 -0.931,-2.152l-0.009,-0.008z"/>
  <path id="svg_17" fill="white" d="m470.194,213.051l-0.031,-0.029l-3.439,-3.221c-0.202,-0.19 -0.441,-0.34 -0.704,-0.442c-0.264,-0.102 -0.545,-0.154 -0.83,-0.152c-0.461,0 -0.91,0.138 -1.284,0.393c0,-0.041 0.006,-0.081 0.009,-0.116c0.139,-0.832 -0.046,-1.683 -0.522,-2.395c-0.757,-0.966 -1.589,-1.878 -2.489,-2.728l-0.008,-0.008c-2.514,-2.282 -5.469,-4.085 -8.704,-5.311c-1.69,-0.657 -3.5,-0.994 -5.327,-0.992c-2.366,-0.021 -4.664,0.741 -6.499,2.153c-0.522,0.472 -0.999,0.987 -1.423,1.54c-0.203,0.265 -0.31,0.584 -0.306,0.912c0.005,0.327 0.121,0.644 0.331,0.903c0.211,0.26 0.504,0.448 0.837,0.538c0.332,0.089 0.686,0.074 1.009,-0.042c0.282,-0.1 0.57,-0.183 0.862,-0.25c0.608,-0.122 1.232,-0.158 1.851,-0.109c1.285,0.127 2.516,0.554 3.583,1.243c0.598,0.476 1.073,1.075 1.391,1.751c0.317,0.676 0.468,1.411 0.441,2.15c-0.445,1.201 -1.126,2.312 -2.007,3.274c-0.235,0.293 -0.349,0.656 -0.323,1.023c0.027,0.366 0.193,0.711 0.469,0.971l3.453,3.267c0.29,0.275 0.681,0.434 1.092,0.445c0.411,0.011 0.81,-0.127 1.116,-0.386c0.977,-0.825 2.464,-2.069 2.984,-2.374c0.445,-0.281 0.948,-0.469 1.476,-0.551c0.393,-0.036 0.789,0.043 1.133,0.226c0.002,0.017 0,0.033 -0.006,0.049c-0.005,0.015 -0.014,0.029 -0.025,0.041l-0.183,0.165l-0.03,0.026c-0.406,0.383 -0.634,0.902 -0.636,1.444c-0.001,0.542 0.226,1.062 0.63,1.446l0.011,0.01l3.439,3.22c0.201,0.189 0.44,0.34 0.704,0.441c0.263,0.102 0.545,0.154 0.829,0.152c0.571,0.001 1.12,-0.211 1.528,-0.589l5.57,-5.205c0.019,-0.018 0.038,-0.037 0.056,-0.056c0.374,-0.387 0.579,-0.894 0.574,-1.419c-0.005,-0.524 -0.22,-1.027 -0.602,-1.408z"/>
  <path id="svg_18" fill="white" d="m76.6644,216.466c-0.3974,0 -0.7859,-0.112 -1.1164,-0.32c-0.3304,-0.209 -0.588,-0.506 -0.7401,-0.854c-0.1521,-0.347 -0.1918,-0.729 -0.1143,-1.098c0.0775,-0.369 0.2689,-0.707 0.5499,-0.973l4.6076,-4.359l-4.6076,-4.359c-0.3768,-0.356 -0.5885,-0.84 -0.5885,-1.344c0,-0.504 0.2117,-0.987 0.5885,-1.344c0.3769,-0.356 0.888,-0.557 1.4209,-0.557c0.533,0 1.0441,0.201 1.421,0.557l6.0286,5.703c0.1866,0.176 0.3346,0.386 0.4356,0.617c0.101,0.23 0.153,0.477 0.153,0.727c0,0.25 -0.052,0.497 -0.153,0.728c-0.101,0.23 -0.249,0.44 -0.4356,0.616l-6.0286,5.703c-0.1864,0.177 -0.4079,0.317 -0.6517,0.413c-0.2439,0.095 -0.5053,0.144 -0.7693,0.144z"/>
  <path id="svg_19" fill="white" d="m44.512,222.169c-0.2639,0 -0.5253,-0.049 -0.7691,-0.145c-0.2438,-0.095 -0.4653,-0.235 -0.6519,-0.412c-0.1866,-0.177 -0.3346,-0.386 -0.4356,-0.617c-0.101,-0.23 -0.153,-0.478 -0.153,-0.727l0,-1.901c0.0158,-3.02 1.2903,-5.911 3.5468,-8.047c2.2565,-2.135 5.3126,-3.342 8.5044,-3.359l26.1299,0c0.533,0 1.0441,0.2 1.421,0.557c0.3768,0.356 0.5886,0.84 0.5886,1.344c0,0.504 -0.2118,0.988 -0.5886,1.344c-0.3769,0.357 -0.888,0.557 -1.421,0.557l-26.1239,0c-2.129,0.012 -4.1671,0.818 -5.672,2.242c-1.5049,1.425 -2.3551,3.354 -2.3661,5.368l0,1.895c0,0.249 -0.052,0.497 -0.153,0.727c-0.101,0.231 -0.249,0.44 -0.4356,0.617c-0.1866,0.176 -0.4081,0.317 -0.6519,0.412c-0.2438,0.096 -0.5051,0.145 -0.769,0.145l0,0z"/>
  <path id="svg_20" fill="white" d="m60.5882,237.376c-0.264,0.001 -0.5254,-0.048 -0.7692,-0.144c-0.2439,-0.095 -0.4654,-0.236 -0.6517,-0.412l-6.0286,-5.703c-0.1867,-0.177 -0.3347,-0.386 -0.4357,-0.617c-0.101,-0.231 -0.153,-0.478 -0.153,-0.727c0,-0.25 0.052,-0.497 0.153,-0.728c0.101,-0.23 0.249,-0.44 0.4357,-0.617l6.0286,-5.702c0.3769,-0.356 0.8879,-0.556 1.4205,-0.556c0.5326,0 1.0434,0.201 1.42,0.557c0.3766,0.356 0.5883,0.839 0.5885,1.343c0.0003,0.504 -0.2109,0.987 -0.5872,1.344l-4.6075,4.359l4.6075,4.358c0.281,0.266 0.4724,0.605 0.5499,0.974c0.0776,0.368 0.0378,0.751 -0.1143,1.098c-0.1521,0.347 -0.4097,0.644 -0.7401,0.853c-0.3305,0.209 -0.719,0.32 -1.1164,0.32z"/>
  <path id="svg_21" fill="white" d="m59.8642,231.468c-0.5329,0 -1.044,-0.2 -1.4209,-0.557c-0.3768,-0.356 -0.5886,-0.84 -0.5886,-1.344c0,-0.504 0.2118,-0.988 0.5886,-1.344c0.3769,-0.356 0.888,-0.557 1.4209,-0.557l26.1239,0c2.129,-0.012 4.1671,-0.817 5.672,-2.242c1.5049,-1.425 2.3551,-3.353 2.3661,-5.367l0,-1.896c0,-0.504 0.2117,-0.987 0.5886,-1.344c0.3769,-0.356 0.888,-0.557 1.421,-0.557c0.5329,0 1.0441,0.201 1.4209,0.557c0.3769,0.357 0.5886,0.84 0.5886,1.344l0,1.901c-0.0158,3.02 -1.2903,5.911 -3.5468,8.047c-2.2564,2.136 -5.3126,3.343 -8.5044,3.359l-26.1299,0z"/>
 </g>
</svg>