<svg width="798" height="620" viewBox="0 0 798 620" fill="none" xmlns="http://www.w3.org/2000/svg">
<path d="M240.296 425.924C238.147 425.907 235.972 425.892 233.837 425.826L233.903 423.681C236.017 423.746 238.178 423.775 240.297 423.777C242.425 423.777 244.594 423.742 246.746 423.673L246.816 425.818C244.64 425.888 242.448 425.924 240.296 425.924ZM220.887 425.017C216.598 424.612 212.267 424.064 208.014 423.388L208.354 421.269C212.562 421.937 216.847 422.48 221.09 422.881L220.887 425.017ZM259.764 424.994L259.559 422.858C263.801 422.453 268.085 421.905 272.293 421.23L272.636 423.349C268.382 424.032 264.052 424.585 259.764 424.994H259.764ZM195.272 420.938C191.073 419.99 186.848 418.891 182.715 417.674L183.325 415.615C187.414 416.82 191.594 417.906 195.749 418.844L195.272 420.938ZM285.375 420.885L284.896 418.793C289.06 417.846 293.239 416.755 297.315 415.548L297.929 417.607C293.808 418.826 289.584 419.929 285.374 420.885H285.375ZM170.393 413.611C166.341 412.128 162.287 410.495 158.344 408.756L159.216 406.793C163.117 408.512 167.127 410.129 171.136 411.596L170.393 413.611ZM310.244 413.527L309.499 411.512C313.483 410.05 317.48 408.435 321.378 406.712L322.252 408.674C318.311 410.416 314.271 412.049 310.244 413.527H310.244ZM146.637 403.137C142.824 401.154 139.016 399.015 135.32 396.783L136.438 394.946C140.095 397.157 143.861 399.271 147.634 401.234L146.637 403.137ZM333.925 403.059L332.928 401.156C336.692 399.195 340.45 397.08 344.097 394.872L345.217 396.706C341.53 398.939 337.731 401.075 333.925 403.059H333.925ZM124.438 389.72C120.907 387.264 117.406 384.659 114.034 381.979L115.377 380.3C118.714 382.952 122.177 385.529 125.671 387.959L124.438 389.72ZM356.081 389.643L354.846 387.884C358.339 385.451 361.798 382.875 365.126 380.226L366.47 381.903C363.106 384.58 359.611 387.184 356.081 389.643V389.643ZM104.148 373.592C100.955 370.705 97.8161 367.678 94.8197 364.6L96.366 363.105C99.3308 366.151 102.437 369.145 105.596 372.003L104.148 373.592ZM376.347 373.518L374.897 371.929C378.049 369.077 381.152 366.081 384.122 363.027L385.668 364.52C382.668 367.607 379.531 370.634 376.347 373.518V373.518ZM86.0868 355.035C83.2913 351.769 80.5658 348.372 77.9849 344.938L79.7096 343.651C82.2631 347.049 84.9596 350.411 87.7256 353.641L86.0868 355.035ZM394.399 354.946L392.76 353.554C395.525 350.321 398.222 346.955 400.775 343.552L402.501 344.837C399.92 348.276 397.195 351.678 394.399 354.946V354.946ZM70.5474 334.346C68.1906 330.75 65.9227 327.036 63.8062 323.307L65.6818 322.251C67.7751 325.939 70.0193 329.615 72.3514 333.172L70.5474 334.346ZM409.941 334.23L408.136 333.058C410.469 329.493 412.712 325.812 414.807 322.114L416.683 323.169C414.567 326.907 412.298 330.628 409.941 334.23V334.23ZM57.7904 311.863C55.9158 307.999 54.145 304.028 52.5271 300.059L54.5226 299.252C56.1236 303.177 57.8756 307.106 59.7301 310.928L57.7904 311.863ZM422.701 311.695L420.762 310.762C422.615 306.934 424.368 302.995 425.971 299.051L427.967 299.856C426.347 303.843 424.576 307.826 422.701 311.695V311.695ZM48.0302 287.928C46.6675 283.851 45.4225 279.68 44.3296 275.531L46.4134 274.986C47.4943 279.089 48.7261 283.216 50.0741 287.249L48.0302 287.928ZM432.456 287.701L430.411 287.026C431.751 282.997 432.979 278.869 434.057 274.757L436.142 275.3C435.051 279.457 433.811 283.629 432.456 287.701V287.701ZM41.4395 262.925C40.6163 258.713 39.92 254.418 39.3693 250.159L41.5057 249.884C42.0506 254.098 42.7396 258.347 43.5538 262.514L41.4395 262.925ZM439.017 262.689L436.902 262.282C437.71 258.116 438.395 253.866 438.935 249.649L441.072 249.921C440.526 254.183 439.834 258.479 439.017 262.689V262.689ZM38.1238 237.289C37.8477 233.01 37.7052 228.661 37.7004 224.362L39.8548 224.36C39.8595 228.614 40.0004 232.917 40.2739 237.15L38.1238 237.289ZM442.303 237.049L440.153 236.912C440.421 232.683 440.557 228.38 440.557 224.125L440.555 223.654H442.71L442.711 224.118C442.711 228.425 442.573 232.773 442.303 237.049ZM40.244 211.571L38.0939 211.439C38.361 207.152 38.7697 202.821 39.3088 198.565L41.4463 198.833C40.9124 203.045 40.508 207.33 40.244 211.571ZM440.123 210.867C439.843 206.624 439.424 202.339 438.876 198.134L441.011 197.857C441.565 202.108 441.99 206.437 442.273 210.726L440.123 210.867ZM43.4639 186.2L41.3485 185.794C42.1611 181.581 43.1237 177.337 44.2081 173.181L46.293 173.72C45.22 177.833 44.2681 182.031 43.4639 186.2ZM436.811 185.507C435.99 181.336 435.022 177.141 433.937 173.038L436.02 172.491C437.118 176.638 438.095 180.878 438.925 185.094L436.811 185.507ZM49.9252 161.449L47.8793 160.776C49.2315 156.696 50.7368 152.605 52.3541 148.613L54.3517 149.417C52.7517 153.366 51.2627 157.413 49.9252 161.449ZM430.264 160.779C428.911 156.75 427.41 152.714 425.801 148.782L427.796 147.972C429.422 151.946 430.94 156.026 432.306 160.098L430.264 160.779ZM59.5481 137.698L57.6063 136.767C59.475 132.896 61.4957 129.033 63.6116 125.287L65.4893 126.34C63.3955 130.047 61.3968 133.868 59.5481 137.698ZM420.581 137.113C418.725 133.301 416.719 129.494 414.615 125.797L416.49 124.738C418.616 128.474 420.644 132.323 422.518 136.177L420.581 137.113ZM72.1479 115.388L70.3418 114.217C72.6912 110.619 75.19 107.047 77.7683 103.602L79.4955 104.885C76.9446 108.293 74.4721 111.827 72.1479 115.388ZM407.933 114.883C405.602 111.335 403.122 107.812 400.562 104.413L402.285 103.125C404.873 106.561 407.379 110.121 409.736 113.707L407.933 114.883ZM87.4995 94.8734L85.8585 93.4834C88.6487 90.2124 91.5819 86.988 94.5767 83.9004L96.1262 85.3921C93.163 88.4472 90.2608 91.6375 87.4995 94.8734ZM392.534 94.4311C389.764 91.204 386.852 88.0232 383.882 84.977L385.426 83.4811C388.429 86.5593 391.371 89.7742 394.17 93.0358L392.534 94.4311ZM105.339 76.4784L103.889 74.8913C107.077 71.9977 110.396 69.1721 113.755 66.4939L115.102 68.17C111.778 70.82 108.494 73.6156 105.339 76.4784V76.4784ZM374.641 76.089C371.482 73.2393 368.188 70.452 364.849 67.8052L366.192 66.1249C369.565 68.8005 372.894 71.6172 376.086 74.4977L374.641 76.089ZM125.373 60.4995L124.137 58.7416C127.662 56.2798 131.314 53.8998 134.992 51.6671L136.113 53.5004C132.474 55.7096 128.861 58.0645 125.373 60.4995ZM354.547 60.1578C351.04 57.7254 347.415 55.3784 343.772 53.1818L344.887 51.3453C348.569 53.5649 352.234 55.9371 355.778 58.3957L354.547 60.1578ZM147.276 47.2026L146.276 45.3011C150.084 43.3105 154.01 41.4163 157.942 39.6715L158.819 41.6328C154.928 43.3587 151.044 45.233 147.276 47.2026ZM332.568 46.9081C328.785 44.9458 324.887 43.0804 320.981 41.3634L321.851 39.399C325.798 41.1344 329.739 43.0201 333.563 45.0034L332.568 46.9081ZM170.692 36.8172L169.944 34.8035C173.983 33.3145 178.125 31.9371 182.255 30.7101L182.87 32.7678C178.785 33.9811 174.688 35.3439 170.692 36.8172H170.692ZM309.055 36.5735C305.05 35.1138 300.948 33.7658 296.861 32.5676L297.469 30.5078C301.6 31.719 305.747 33.0818 309.795 34.5577L309.055 36.5735ZM195.286 29.5104L194.805 27.4181C198.996 26.4611 203.281 25.6272 207.541 24.938L207.886 27.0575C203.671 27.7389 199.432 28.5639 195.286 29.5104ZM284.434 29.3542C280.28 28.4213 276.038 27.611 271.825 26.9454L272.162 24.8248C276.421 25.4978 280.709 26.317 284.907 27.2599L284.434 29.3542ZM220.618 25.4144L220.41 23.2781C224.687 22.8646 229.044 22.5821 233.358 22.439L233.43 24.5847C229.16 24.7263 224.85 25.0056 220.618 25.4144V25.4144ZM259.087 25.3479C254.849 24.9532 250.537 24.6891 246.273 24.5628L246.337 22.417C250.646 22.5449 255.004 22.8117 259.287 23.2105L259.087 25.3479Z" fill="#D0CDE1"/>
<path d="M232.666 95.7819C260.626 95.7819 283.292 74.3404 283.292 47.8909C283.292 21.4415 260.626 0 232.666 0C204.705 0 182.039 21.4415 182.039 47.8909C182.039 74.3404 204.705 95.7819 232.666 95.7819Z" fill="#6C63FF"/>
<path d="M428.708 226.208C456.668 226.208 479.334 204.767 479.334 178.317C479.334 151.868 456.668 130.426 428.708 130.426C400.748 130.426 378.082 151.868 378.082 178.317C378.082 204.767 400.748 226.208 428.708 226.208Z" fill="#6C63FF"/>
<path d="M367.31 425.924C395.27 425.924 417.936 404.482 417.936 378.033C417.936 351.583 395.27 330.142 367.31 330.142C339.35 330.142 316.684 351.583 316.684 378.033C316.684 404.482 339.35 425.924 367.31 425.924Z" fill="#6C63FF"/>
<path d="M123.873 434.075C151.833 434.075 174.499 412.634 174.499 386.184C174.499 359.735 151.833 338.293 123.873 338.293C95.9127 338.293 73.2466 359.735 73.2466 386.184C73.2466 412.634 95.9127 434.075 123.873 434.075Z" fill="#6C63FF"/>
<path d="M50.6263 226.208C78.5864 226.208 101.253 204.767 101.253 178.317C101.253 151.868 78.5864 130.426 50.6263 130.426C22.6662 130.426 0 151.868 0 178.317C0 204.767 22.6662 226.208 50.6263 226.208Z" fill="#6C63FF"/>
<path d="M254.361 44.0728H236.702C235.096 44.0728 233.556 43.4694 232.421 42.3953C231.285 41.3212 230.647 39.8645 230.647 38.3455V21.6409C230.647 21.5782 230.634 21.5161 230.609 21.4582C230.584 21.4003 230.547 21.3477 230.5 21.3034C230.453 21.2591 230.397 21.2239 230.336 21.1999C230.275 21.176 230.209 21.1636 230.143 21.1636H218.539C216.398 21.1636 214.344 21.9682 212.83 23.4003C211.317 24.8323 210.466 26.7747 210.466 28.8V66.9819C210.466 69.0072 211.317 70.9495 212.83 72.3816C214.344 73.8137 216.398 74.6183 218.539 74.6183H246.793C248.934 74.6183 250.987 73.8137 252.501 72.3816C254.015 70.9495 254.865 69.0072 254.865 66.9819V44.55C254.865 44.4874 254.852 44.4253 254.827 44.3674C254.801 44.3095 254.764 44.2569 254.717 44.2125C254.67 44.1682 254.615 44.1331 254.554 44.1091C254.492 44.0851 254.427 44.0728 254.361 44.0728V44.0728ZM242.756 63.1637H222.575C222.04 63.1637 221.526 62.9626 221.148 62.6046C220.769 62.2465 220.557 61.7609 220.557 61.2546C220.557 60.7483 220.769 60.2627 221.148 59.9047C221.526 59.5467 222.04 59.3455 222.575 59.3455H242.756C243.292 59.3455 243.805 59.5467 244.183 59.9047C244.562 60.2627 244.774 60.7483 244.774 61.2546C244.774 61.7609 244.562 62.2465 244.183 62.6046C243.805 62.9626 243.292 63.1637 242.756 63.1637ZM242.756 53.6182H222.575C222.04 53.6182 221.526 53.4171 221.148 53.0591C220.769 52.701 220.557 52.2155 220.557 51.7091C220.557 51.2028 220.769 50.7172 221.148 50.3592C221.526 50.0012 222.04 49.8 222.575 49.8H242.756C243.292 49.8 243.805 50.0012 244.183 50.3592C244.562 50.7172 244.774 51.2028 244.774 51.7091C244.774 52.2155 244.562 52.701 244.183 53.0591C243.805 53.4171 243.292 53.6182 242.756 53.6182Z" fill="white"/>
<path d="M253.253 39.8477L235.114 22.6885C235.078 22.6553 235.034 22.6327 234.985 22.6236C234.936 22.6145 234.885 22.6192 234.84 22.6372C234.794 22.6552 234.754 22.6856 234.727 22.7247C234.699 22.7637 234.684 22.8097 234.684 22.8567V38.3454C234.684 38.8518 234.896 39.3373 235.275 39.6954C235.653 40.0534 236.167 40.2545 236.702 40.2545H253.075C253.125 40.2543 253.173 40.2402 253.215 40.214C253.256 40.1878 253.288 40.1506 253.307 40.1071C253.326 40.0636 253.331 40.0158 253.322 39.9696C253.312 39.9235 253.288 39.881 253.253 39.8477L253.253 39.8477Z" fill="white"/>
<path d="M374.632 368.599C374.012 368.599 373.41 368.803 372.931 369.176C372.451 369.548 372.123 370.067 372.002 370.643C371.881 371.219 371.976 371.816 372.268 372.334C372.561 372.852 373.035 373.257 373.608 373.482C374.182 373.706 374.82 373.736 375.414 373.565C376.008 373.394 376.521 373.034 376.865 372.546C377.21 372.057 377.365 371.471 377.304 370.887C377.243 370.302 376.969 369.756 376.53 369.341C376.281 369.106 375.985 368.919 375.66 368.791C375.334 368.664 374.985 368.598 374.632 368.599Z" fill="white"/>
<path d="M389.569 358.449V358.441C389.484 358.088 389.297 357.765 389.028 357.508C388.759 357.251 388.42 357.07 388.048 356.986C385.053 356.295 380.34 357.031 375.118 359.009C370.096 360.856 365.501 363.608 361.589 367.113C360.521 368.119 359.528 369.193 358.619 370.33C356.61 370.199 354.596 370.505 352.731 371.225C346.927 373.641 345.269 379.825 344.828 382.364C344.764 382.725 344.789 383.095 344.901 383.445C345.013 383.795 345.209 384.116 345.473 384.383C345.738 384.65 346.064 384.855 346.426 384.983C346.788 385.111 347.177 385.159 347.561 385.122H347.574L354.04 384.454C354.048 384.532 354.057 384.604 354.064 384.669C354.147 385.414 354.499 386.11 355.059 386.639L358.215 389.626C358.774 390.158 359.509 390.49 360.297 390.569L360.513 390.591L359.809 396.699V396.712C359.775 397.022 359.806 397.336 359.901 397.635C359.995 397.934 360.15 398.213 360.359 398.455C360.567 398.698 360.823 398.899 361.113 399.047C361.404 399.196 361.722 399.289 362.05 399.321C362.128 399.328 362.205 399.333 362.283 399.333C362.423 399.333 362.562 399.323 362.7 399.301C365.399 398.89 371.933 397.341 374.481 391.821C375.236 390.063 375.56 388.167 375.431 386.273C376.638 385.415 377.778 384.476 378.843 383.463C382.546 379.798 385.459 375.485 387.419 370.767C389.499 365.883 390.282 361.392 389.569 358.449ZM378.807 375.079C377.981 375.861 376.929 376.394 375.783 376.61C374.637 376.826 373.449 376.716 372.37 376.294C371.29 375.871 370.367 375.155 369.717 374.237C369.067 373.318 368.72 372.238 368.72 371.132C368.719 370.027 369.065 368.946 369.714 368.027C370.362 367.108 371.285 366.391 372.364 365.967C373.443 365.544 374.631 365.433 375.777 365.648C376.923 365.863 377.976 366.394 378.803 367.176L378.807 367.18C379.915 368.212 380.543 369.617 380.555 371.087C380.567 372.558 379.961 373.972 378.87 375.02L378.807 375.079Z" fill="white"/>
<path d="M357.853 390.436C357.464 390.391 357.071 390.481 356.747 390.69C356.105 391.106 355.46 391.517 354.808 391.917C354.525 392.089 354.19 392.166 353.855 392.136C353.52 392.106 353.206 391.971 352.962 391.751C352.719 391.532 352.56 391.241 352.512 390.927C352.464 390.612 352.529 390.291 352.697 390.015L353.919 388.018C354.093 387.777 354.19 387.492 354.199 387.2C354.207 386.907 354.126 386.619 353.965 386.369C353.804 386.119 353.57 385.918 353.292 385.79C353.013 385.663 352.702 385.614 352.395 385.65C351.039 385.812 349.779 386.396 348.813 387.31C348.445 387.659 347.326 388.718 346.724 392.755C346.553 393.914 346.445 395.081 346.4 396.251C346.395 396.451 346.431 396.65 346.507 396.836C346.583 397.023 346.697 397.193 346.842 397.338C346.988 397.483 347.162 397.599 347.355 397.681C347.548 397.762 347.756 397.806 347.967 397.811C347.981 397.812 347.995 397.812 348.009 397.812H348.049C349.287 397.77 350.521 397.669 351.748 397.508C356.017 396.937 357.137 395.878 357.505 395.53C358.476 394.615 359.092 393.418 359.253 392.131C359.305 391.731 359.187 391.327 358.924 391.01C358.661 390.692 358.276 390.486 357.853 390.436V390.436Z" fill="white"/>
<path d="M106.45 412.208H102.782C102.052 412.208 101.352 411.934 100.836 411.446C100.32 410.958 100.031 410.296 100.031 409.606V393.992C100.031 393.301 100.32 392.639 100.836 392.151C101.352 391.663 102.052 391.389 102.782 391.389H106.45C107.179 391.389 107.879 391.663 108.395 392.151C108.911 392.639 109.201 393.301 109.201 393.992V409.606C109.201 410.296 108.911 410.958 108.395 411.446C107.879 411.934 107.179 412.208 106.45 412.208V412.208Z" fill="white"/>
<path d="M132.126 412.208H128.458C127.728 412.208 127.029 411.934 126.513 411.446C125.997 410.958 125.707 410.296 125.707 409.606V383.582C125.707 382.892 125.997 382.23 126.513 381.742C127.029 381.254 127.728 380.98 128.458 380.98H132.126C132.856 380.98 133.555 381.254 134.071 381.742C134.587 382.23 134.877 382.892 134.877 383.582V409.606C134.877 410.296 134.587 410.958 134.071 411.446C133.555 411.934 132.856 412.208 132.126 412.208V412.208Z" fill="white"/>
<path d="M144.964 412.208H141.296C140.566 412.208 139.867 411.934 139.351 411.446C138.835 410.958 138.545 410.296 138.545 409.606V371.437C138.545 370.747 138.835 370.085 139.351 369.597C139.867 369.109 140.566 368.835 141.296 368.835H144.964C145.694 368.835 146.394 369.109 146.909 369.597C147.425 370.085 147.715 370.747 147.715 371.437V409.606C147.715 410.296 147.425 410.958 146.909 411.446C146.394 411.934 145.694 412.208 144.964 412.208V412.208Z" fill="white"/>
<path d="M119.288 412.208H115.62C114.89 412.208 114.19 411.934 113.675 411.446C113.159 410.958 112.869 410.296 112.869 409.606V362.763C112.869 362.073 113.159 361.411 113.675 360.923C114.19 360.435 114.89 360.16 115.62 360.16H119.288C120.017 360.16 120.717 360.435 121.233 360.923C121.749 361.411 122.039 362.073 122.039 362.763V409.606C122.039 409.948 121.968 410.286 121.829 410.602C121.691 410.918 121.489 411.205 121.233 411.446C120.978 411.688 120.674 411.88 120.341 412.01C120.007 412.141 119.649 412.208 119.288 412.208V412.208Z" fill="white"/>
<path d="M431.133 177.063L428.512 174.583C427.912 174.015 427.099 173.695 426.25 173.693C425.401 173.691 424.585 174.007 423.982 174.572L405.762 190.478C405.093 191.038 404.684 191.824 404.623 192.667C404.603 193.086 404.676 193.504 404.835 193.895C404.994 194.286 405.236 194.642 405.547 194.94L409.462 198.684L409.469 198.691C410.073 199.261 410.892 199.582 411.746 199.585H411.864C412.307 199.562 412.74 199.456 413.139 199.274C413.538 199.092 413.895 198.837 414.19 198.525L431.122 181.368C431.727 180.801 432.069 180.029 432.073 179.223C432.076 178.418 431.741 177.643 431.142 177.071L431.133 177.063Z" fill="white"/>
<path d="M452.194 172.051L452.163 172.022L448.724 168.801C448.522 168.611 448.283 168.461 448.02 168.359C447.757 168.257 447.475 168.205 447.19 168.207C446.729 168.207 446.28 168.345 445.906 168.6C445.906 168.559 445.912 168.519 445.915 168.484C446.054 167.652 445.869 166.801 445.394 166.089C444.636 165.123 443.804 164.211 442.904 163.361L442.896 163.353C440.382 161.071 437.427 159.268 434.192 158.042C432.502 157.385 430.692 157.048 428.865 157.05C426.499 157.029 424.201 157.791 422.366 159.203C421.844 159.675 421.367 160.19 420.943 160.743C420.74 161.008 420.633 161.327 420.637 161.655C420.642 161.982 420.758 162.299 420.968 162.558C421.179 162.818 421.472 163.006 421.805 163.096C422.137 163.185 422.491 163.17 422.815 163.054C423.096 162.954 423.384 162.871 423.676 162.804C424.284 162.682 424.908 162.646 425.528 162.695C426.812 162.822 428.043 163.249 429.11 163.938C429.708 164.414 430.183 165.013 430.501 165.689C430.818 166.365 430.969 167.1 430.942 167.839C430.497 169.04 429.816 170.151 428.935 171.113C428.7 171.406 428.586 171.769 428.612 172.136C428.639 172.502 428.805 172.847 429.081 173.107L432.534 176.374C432.824 176.649 433.215 176.808 433.626 176.819C434.037 176.83 434.436 176.692 434.742 176.433C435.719 175.608 437.206 174.364 437.726 174.059C438.171 173.778 438.674 173.59 439.202 173.508C439.595 173.472 439.991 173.551 440.335 173.734C440.337 173.751 440.335 173.767 440.329 173.783C440.324 173.798 440.315 173.812 440.304 173.824L440.121 173.989L440.091 174.015C439.685 174.398 439.457 174.917 439.455 175.459C439.454 176.001 439.681 176.521 440.085 176.905L440.096 176.915L443.535 180.135C443.736 180.324 443.975 180.475 444.239 180.576C444.502 180.678 444.784 180.73 445.068 180.728C445.639 180.729 446.188 180.517 446.596 180.139L452.166 174.934C452.185 174.916 452.204 174.897 452.222 174.878C452.596 174.491 452.801 173.984 452.796 173.459C452.791 172.935 452.576 172.432 452.194 172.051Z" fill="white"/>
<path d="M58.6644 175.466C58.267 175.466 57.8785 175.354 57.548 175.146C57.2176 174.937 56.96 174.64 56.8079 174.292C56.6558 173.945 56.6161 173.563 56.6936 173.194C56.7711 172.825 56.9625 172.487 57.2435 172.221L61.8511 167.862L57.2435 163.503C56.8667 163.147 56.655 162.663 56.655 162.159C56.655 161.655 56.8667 161.172 57.2435 160.815C57.6204 160.459 58.1315 160.258 58.6644 160.258C59.1974 160.258 59.7085 160.459 60.0854 160.815L66.114 166.518C66.3006 166.694 66.4486 166.904 66.5496 167.135C66.6506 167.365 66.7026 167.612 66.7026 167.862C66.7026 168.112 66.6506 168.359 66.5496 168.59C66.4486 168.82 66.3006 169.03 66.114 169.206L60.0854 174.909C59.899 175.086 59.6775 175.226 59.4337 175.322C59.1898 175.417 58.9284 175.466 58.6644 175.466Z" fill="white"/>
<path d="M26.512 181.169C26.2481 181.169 25.9867 181.12 25.7429 181.024C25.4991 180.929 25.2776 180.789 25.091 180.612C24.9044 180.435 24.7564 180.226 24.6554 179.995C24.5544 179.765 24.5024 179.517 24.5024 179.268V177.367C24.5182 174.347 25.7927 171.456 28.0492 169.32C30.3057 167.185 33.3618 165.978 36.5536 165.961H62.6835C63.2165 165.961 63.7276 166.161 64.1045 166.518C64.4813 166.874 64.6931 167.358 64.6931 167.862C64.6931 168.366 64.4813 168.85 64.1045 169.206C63.7276 169.563 63.2165 169.763 62.6835 169.763H36.5596C34.4306 169.775 32.3925 170.581 30.8876 172.005C29.3827 173.43 28.5325 175.359 28.5215 177.373V179.268C28.5215 179.517 28.4695 179.765 28.3685 179.995C28.2675 180.226 28.1195 180.435 27.9329 180.612C27.7463 180.788 27.5248 180.929 27.281 181.024C27.0372 181.12 26.7759 181.169 26.512 181.169V181.169Z" fill="white"/>
<path d="M42.5882 196.376C42.3242 196.377 42.0628 196.328 41.819 196.232C41.5751 196.137 41.3536 195.996 41.1673 195.82L35.1387 190.117C34.952 189.94 34.804 189.731 34.703 189.5C34.602 189.269 34.55 189.022 34.55 188.773C34.55 188.523 34.602 188.276 34.703 188.045C34.804 187.815 34.952 187.605 35.1387 187.428L41.1673 181.726C41.5442 181.37 42.0552 181.17 42.5878 181.17C43.1204 181.17 43.6312 181.371 44.0078 181.727C44.3844 182.083 44.5961 182.566 44.5963 183.07C44.5966 183.574 44.3854 184.057 44.0091 184.414L39.4016 188.773L44.0091 193.131C44.2901 193.397 44.4815 193.736 44.559 194.105C44.6366 194.473 44.5968 194.856 44.4447 195.203C44.2926 195.55 44.035 195.847 43.7046 196.056C43.3741 196.265 42.9856 196.376 42.5882 196.376Z" fill="white"/>
<path d="M41.8642 190.468C41.3313 190.468 40.8202 190.268 40.4433 189.911C40.0665 189.555 39.8547 189.071 39.8547 188.567C39.8547 188.063 40.0665 187.579 40.4433 187.223C40.8202 186.867 41.3313 186.666 41.8642 186.666H67.9881C70.1171 186.654 72.1552 185.849 73.6601 184.424C75.165 182.999 76.0152 181.071 76.0262 179.057V177.161C76.0262 176.657 76.2379 176.174 76.6148 175.817C76.9917 175.461 77.5028 175.26 78.0358 175.26C78.5687 175.26 79.0799 175.461 79.4567 175.817C79.8336 176.174 80.0453 176.657 80.0453 177.161V179.062C80.0295 182.082 78.755 184.973 76.4985 187.109C74.2421 189.245 71.1859 190.452 67.9941 190.468L41.8642 190.468Z" fill="white"/>
</svg>
